<?xml version="1.0" standalone="no"?>
<!DOCTYPE svg PUBLIC "-//W3C//DTD SVG 20010904//EN"
 "http://www.w3.org/TR/2001/REC-SVG-20010904/DTD/svg10.dtd">
<svg version="1.0" xmlns="http://www.w3.org/2000/svg"
 width="200.000000pt" height="200.000000pt" viewBox="0 0 200.000000 200.000000"
 preserveAspectRatio="xMidYMid meet">
<metadata>
Created by potrace 1.11, written by Peter Selinger 2001-2013
</metadata>
<g transform="translate(0.000000,200.000000) scale(0.100000,-0.100000)"
fill="#000000" stroke="none">
<path d="M964 1270 c-28 -11 -64 -58 -64 -82 0 -10 12 -48 28 -84 l27 -65 43
3 c43 3 44 3 73 70 28 64 29 69 15 102 -8 20 -28 42 -45 50 -33 18 -46 19 -77
6z m87 -39 c35 -36 36 -44 3 -115 -23 -51 -28 -56 -57 -56 -29 0 -34 5 -55 53
-29 67 -28 92 4 122 36 33 69 31 105 -4z"/>
<path d="M100 726 c0 -2 14 -47 30 -101 17 -54 30 -119 30 -146 0 -46 2 -49
25 -49 24 0 25 3 25 58 0 33 11 90 25 135 30 94 31 107 5 107 -19 0 -23 -9
-46 -104 -8 -35 -16 -22 -34 52 -10 45 -15 52 -36 52 -13 0 -24 -2 -24 -4z"/>
<path d="M380 580 c0 -151 0 -151 23 -148 22 3 22 5 22 148 0 143 0 145 -22
148 -23 3 -23 3 -23 -148z"/>
<path d="M560 580 l0 -150 25 0 25 0 0 150 0 150 -25 0 -25 0 0 -150z"/>
<path d="M650 550 l0 -120 25 0 c24 0 24 1 27 103 2 83 6 102 18 102 12 0 16
-19 18 -102 3 -102 3 -103 27 -103 25 0 25 0 25 101 0 55 -5 109 -10 120 -12
22 -59 26 -78 7 -9 -9 -12 -9 -12 0 0 7 -9 12 -20 12 -19 0 -20 -7 -20 -120z"/>
<path d="M836 654 c-26 -25 -19 -59 24 -113 45 -57 49 -71 20 -71 -13 0 -20 7
-20 20 0 13 -7 20 -20 20 -25 0 -28 -41 -4 -64 20 -20 68 -20 88 0 28 28 17
73 -29 124 -28 31 -36 65 -15 65 8 0 16 -10 18 -22 4 -26 30 -31 39 -7 3 8 1
26 -5 40 -9 19 -19 24 -46 24 -19 0 -42 -7 -50 -16z"/>
<path d="M970 586 c0 -117 7 -145 38 -153 14 -3 33 -1 44 6 11 7 18 7 18 1 0
-5 9 -10 20 -10 19 0 20 7 20 120 l0 120 -25 0 -25 0 0 -100 c0 -93 -1 -100
-20 -100 -19 0 -20 7 -20 100 l0 100 -25 0 c-25 0 -25 -1 -25 -84z"/>
<path d="M1150 550 l0 -120 25 0 25 0 0 105 c0 58 4 105 9 105 5 0 11 -10 13
-22 2 -13 11 -24 21 -26 16 -3 18 2 15 35 l-3 38 -52 2 -53 2 0 -119z"/>
<path d="M1296 655 c-23 -24 -21 -65 3 -65 13 0 21 8 23 23 4 31 32 28 36 -4
2 -21 -4 -31 -31 -47 -42 -24 -60 -69 -43 -103 13 -27 50 -37 71 -19 10 8 14
8 17 -1 2 -7 11 -10 21 -6 14 5 17 21 17 94 0 109 -12 137 -61 141 -24 2 -42
-3 -53 -13z m64 -150 c0 -25 -4 -35 -15 -35 -21 0 -29 24 -15 49 16 32 30 25
30 -14z"/>
<path d="M1450 548 c0 -118 0 -119 23 -116 21 3 22 8 25 98 5 157 42 151 42
-7 0 -86 1 -93 20 -93 19 0 20 7 20 109 0 75 -4 112 -12 119 -7 5 -37 10 -65
10 l-53 0 0 -120z"/>
<path d="M1639 653 c-19 -22 -24 -160 -7 -193 17 -32 75 -41 95 -14 20 27 16
54 -7 54 -11 0 -20 -7 -20 -15 0 -8 -7 -15 -15 -15 -13 0 -15 14 -13 82 2 51
7 83 15 85 6 2 13 -6 15 -19 2 -12 11 -24 21 -26 13 -3 17 3 17 25 0 16 -5 34
-12 41 -18 18 -73 15 -89 -5z"/>
<path d="M1785 640 c-28 -55 -17 -178 19 -202 20 -14 63 -8 79 10 23 26 22 52
-3 52 -11 0 -20 -7 -20 -15 0 -8 -9 -15 -20 -15 -16 0 -20 7 -20 35 0 34 1 35
40 35 l40 0 0 49 c0 59 -18 81 -65 81 -28 0 -37 -6 -50 -30z m69 -16 c12 -32
6 -54 -14 -54 -15 0 -20 7 -20 28 0 41 22 58 34 26z"/>
<path d="M290 485 c-17 -21 -8 -50 17 -53 26 -4 41 31 23 53 -16 19 -24 19
-40 0z"/>
<path d="M471 486 c-17 -20 -4 -56 20 -56 24 0 36 27 22 48 -14 22 -28 25 -42
8z"/>
</g>
</svg>
